<svg xmlns="http://www.w3.org/2000/svg" viewBox="0 0 76.88 27.94"><defs><style>.cls-1,.cls-2{fill:#231f20;}.cls-2{font-size:12px;font-family:MicrosoftYaHei-Bold, Microsoft YaHei;font-weight:700;}.cls-3{letter-spacing:-0.01em;}.cls-4{letter-spacing:0em;}</style></defs><g id="Layer_2" data-name="Layer 2"><g id="Layer_1-2" data-name="Layer 1"><path class="cls-1" d="M3.14,4.1H20a1.13,1.13,0,0,1,1.13,1.13v3a0,0,0,0,1,0,0H2a0,0,0,0,1,0,0v-3A1.13,1.13,0,0,1,3.14,4.1Z" transform="translate(-1.53 6.61) rotate(-30)"/><path class="cls-1" d="M-.25,19.7H18.9a0,0,0,0,1,0,0v3a1.13,1.13,0,0,1-1.13,1.13H.89A1.13,1.13,0,0,1-.25,22.71v-3A0,0,0,0,1-.25,19.7Z" transform="translate(-9.64 7.58) rotate(-30)"/><rect class="cls-1" x="5.69" y="12.04" width="9.57" height="4.03" transform="translate(-5.62 7.12) rotate(-30)"/><text class="cls-2" transform="translate(21.97 17.44)">Su<tspan class="cls-3" x="14.99" y="0">p</tspan><tspan x="22.85" y="0">a</tspan><tspan class="cls-4" x="29.78" y="0">w</tspan><tspan x="39.94" y="0">eb</tspan></text></g></g></svg>